<mxfile host="app.diagrams.net" modified="2024-03-05T18:11:06.691Z" agent="Mozilla/5.0 (Windows NT 10.0; Win64; x64) AppleWebKit/537.36 (KHTML, like Gecko) Chrome/122.0.0.0 Safari/537.36" etag="tlgZXnQQbM4OYH8CIj6l" version="24.0.1" type="github">
  <diagram name="Page-1" id="e3a06f82-3646-2815-327d-82caf3d4e204">
    <mxGraphModel dx="3187" dy="1716" grid="1" gridSize="10" guides="1" tooltips="1" connect="1" arrows="1" fold="1" page="1" pageScale="1.5" pageWidth="1169" pageHeight="826" background="none" math="0" shadow="0">
      <root>
        <mxCell id="0" style=";html=1;" />
        <mxCell id="1" style=";html=1;" parent="0" />
        <mxCell id="6a7d8f32e03d9370-58" value="" style="whiteSpace=wrap;html=1;fillColor=#dae8fc;fontSize=14;strokeColor=none;verticalAlign=top;" parent="1" vertex="1">
          <mxGeometry x="190" y="250" width="310" height="318" as="geometry" />
        </mxCell>
        <mxCell id="6a7d8f32e03d9370-1" value="Client" style="verticalLabelPosition=bottom;aspect=fixed;html=1;verticalAlign=top;strokeColor=none;shape=mxgraph.citrix.laptop_2;fillColor=#66B2FF;gradientColor=#0066CC;fontSize=14;" parent="1" vertex="1">
          <mxGeometry x="286.9999999999999" y="300" width="116" height="86.5" as="geometry" />
        </mxCell>
        <mxCell id="6a7d8f32e03d9370-6" value="Client" style="verticalLabelPosition=bottom;aspect=fixed;html=1;verticalAlign=top;strokeColor=none;shape=mxgraph.citrix.pda;fillColor=#66B2FF;gradientColor=#0066CC;fontSize=14;" parent="1" vertex="1">
          <mxGeometry x="330.00000000000006" y="440" width="30" height="61" as="geometry" />
        </mxCell>
        <mxCell id="Rc0wREw-xOqywwhantwc-2" value="" style="whiteSpace=wrap;html=1;fillColor=#ffe6cc;fontSize=14;strokeColor=#d79b00;verticalAlign=top;" vertex="1" parent="1">
          <mxGeometry x="700" y="250" width="1060" height="318" as="geometry" />
        </mxCell>
        <mxCell id="Rc0wREw-xOqywwhantwc-7" value="" style="endArrow=classic;html=1;rounded=0;exitX=1;exitY=0.75;exitDx=0;exitDy=0;entryX=0;entryY=0.75;entryDx=0;entryDy=0;" edge="1" parent="1" source="6a7d8f32e03d9370-58" target="Rc0wREw-xOqywwhantwc-2">
          <mxGeometry width="50" height="50" relative="1" as="geometry">
            <mxPoint x="750" y="510" as="sourcePoint" />
            <mxPoint x="800" y="460" as="targetPoint" />
          </mxGeometry>
        </mxCell>
        <mxCell id="Rc0wREw-xOqywwhantwc-8" value="&lt;span style=&quot;color: rgb(232, 234, 237); font-family: &amp;quot;Google Sans&amp;quot;, arial, sans-serif-medium, sans-serif; font-size: 28px; text-align: left; text-wrap: wrap; background-color: rgb(32, 33, 36);&quot;&gt;Request&lt;/span&gt;" style="edgeLabel;html=1;align=center;verticalAlign=middle;resizable=0;points=[];" vertex="1" connectable="0" parent="Rc0wREw-xOqywwhantwc-7">
          <mxGeometry y="1" relative="1" as="geometry">
            <mxPoint as="offset" />
          </mxGeometry>
        </mxCell>
        <mxCell id="Rc0wREw-xOqywwhantwc-10" value="" style="endArrow=classic;html=1;rounded=0;exitX=0;exitY=0.25;exitDx=0;exitDy=0;entryX=1;entryY=0.25;entryDx=0;entryDy=0;" edge="1" parent="1" source="Rc0wREw-xOqywwhantwc-2" target="6a7d8f32e03d9370-58">
          <mxGeometry width="50" height="50" relative="1" as="geometry">
            <mxPoint x="750" y="450" as="sourcePoint" />
            <mxPoint x="800" y="400" as="targetPoint" />
          </mxGeometry>
        </mxCell>
        <mxCell id="Rc0wREw-xOqywwhantwc-11" value="&lt;span style=&quot;color: rgb(232, 234, 237); font-family: &amp;quot;Google Sans&amp;quot;, arial, sans-serif-medium, sans-serif; font-size: 28px; text-align: left; text-wrap: wrap; background-color: rgb(32, 33, 36);&quot;&gt;response&lt;/span&gt;" style="edgeLabel;html=1;align=center;verticalAlign=middle;resizable=0;points=[];" vertex="1" connectable="0" parent="Rc0wREw-xOqywwhantwc-10">
          <mxGeometry x="0.0059" relative="1" as="geometry">
            <mxPoint as="offset" />
          </mxGeometry>
        </mxCell>
        <mxCell id="Rc0wREw-xOqywwhantwc-13" value="&lt;ul style=&quot;font-size: 18px;&quot;&gt;&lt;li&gt;&lt;b&gt;input validation&lt;/b&gt;&lt;/li&gt;&lt;li&gt;&lt;b&gt;Authorization / Authentication&lt;/b&gt;&lt;/li&gt;&lt;li&gt;&lt;b&gt;Request Header validation&lt;/b&gt;&lt;/li&gt;&lt;li&gt;&lt;b&gt;Request deduplication&lt;/b&gt;&lt;/li&gt;&lt;li&gt;&lt;b&gt;Token (crypto token) calculation&lt;/b&gt;&lt;/li&gt;&lt;/ul&gt;" style="text;strokeColor=none;fillColor=none;html=1;whiteSpace=wrap;verticalAlign=middle;overflow=hidden;" vertex="1" parent="1">
          <mxGeometry x="700" y="250" width="300" height="320" as="geometry" />
        </mxCell>
        <mxCell id="Rc0wREw-xOqywwhantwc-14" value="&lt;h1&gt;API gateway&lt;/h1&gt;" style="verticalLabelPosition=bottom;sketch=0;aspect=fixed;html=1;verticalAlign=top;strokeColor=none;align=center;outlineConnect=0;shape=mxgraph.citrix.cloud;" vertex="1" parent="1">
          <mxGeometry x="1070" y="310" width="131.01" height="85.5" as="geometry" />
        </mxCell>
        <mxCell id="Rc0wREw-xOqywwhantwc-19" value="" style="verticalLabelPosition=bottom;sketch=0;aspect=fixed;html=1;verticalAlign=top;strokeColor=none;align=center;outlineConnect=0;shape=mxgraph.citrix.role_appcontroller;fillColor=#CCCCCC;gradientColor=#000000;gradientDirection=south;rotation=90;" vertex="1" parent="1">
          <mxGeometry x="1290" y="313.25" width="82.25" height="82.25" as="geometry" />
        </mxCell>
        <mxCell id="Rc0wREw-xOqywwhantwc-20" value="&lt;font style=&quot;font-size: 17px;&quot;&gt;Load balancer&lt;/font&gt;" style="text;strokeColor=none;fillColor=none;html=1;fontSize=24;fontStyle=1;verticalAlign=middle;align=center;" vertex="1" parent="1">
          <mxGeometry x="1281.13" y="410" width="100" height="40" as="geometry" />
        </mxCell>
        <mxCell id="Rc0wREw-xOqywwhantwc-21" value="&lt;h1&gt;&lt;font style=&quot;font-size: 16px;&quot;&gt;Front-end Server&lt;/font&gt;&lt;/h1&gt;" style="verticalLabelPosition=bottom;sketch=0;aspect=fixed;html=1;verticalAlign=top;strokeColor=none;align=center;outlineConnect=0;shape=mxgraph.citrix.cache_server;" vertex="1" parent="1">
          <mxGeometry x="1470" y="320" width="65.54" height="90" as="geometry" />
        </mxCell>
        <mxCell id="Rc0wREw-xOqywwhantwc-22" value="&lt;h1&gt;&lt;font style=&quot;font-size: 19px;&quot;&gt;CDN servers&lt;/font&gt;&lt;/h1&gt;" style="verticalLabelPosition=bottom;sketch=0;aspect=fixed;html=1;verticalAlign=top;strokeColor=none;align=center;outlineConnect=0;shape=mxgraph.citrix.file_server;" vertex="1" parent="1">
          <mxGeometry x="1640" y="316.5" width="71" height="97" as="geometry" />
        </mxCell>
        <mxCell id="Rc0wREw-xOqywwhantwc-24" value="" style="endArrow=classic;startArrow=classic;html=1;rounded=0;dashed=1;dashPattern=8 8;" edge="1" parent="1" source="Rc0wREw-xOqywwhantwc-22" target="Rc0wREw-xOqywwhantwc-21">
          <mxGeometry width="50" height="50" relative="1" as="geometry">
            <mxPoint x="1420" y="410" as="sourcePoint" />
            <mxPoint x="1470" y="360" as="targetPoint" />
          </mxGeometry>
        </mxCell>
        <mxCell id="Rc0wREw-xOqywwhantwc-29" value="" style="group" vertex="1" connectable="0" parent="1">
          <mxGeometry x="1170" y="760" width="151.1300000000001" height="110" as="geometry" />
        </mxCell>
        <mxCell id="Rc0wREw-xOqywwhantwc-26" value="" style="verticalLabelPosition=bottom;sketch=0;aspect=fixed;html=1;verticalAlign=top;strokeColor=none;align=center;outlineConnect=0;shape=mxgraph.citrix.license_server;" vertex="1" parent="Rc0wREw-xOqywwhantwc-29">
          <mxGeometry width="65" height="85" as="geometry" />
        </mxCell>
        <mxCell id="Rc0wREw-xOqywwhantwc-27" value="" style="verticalLabelPosition=bottom;sketch=0;aspect=fixed;html=1;verticalAlign=top;strokeColor=none;align=center;outlineConnect=0;shape=mxgraph.citrix.license_server;" vertex="1" parent="Rc0wREw-xOqywwhantwc-29">
          <mxGeometry x="86.13000000000011" width="65" height="85" as="geometry" />
        </mxCell>
        <mxCell id="Rc0wREw-xOqywwhantwc-28" value="" style="verticalLabelPosition=bottom;sketch=0;aspect=fixed;html=1;verticalAlign=top;strokeColor=none;align=center;outlineConnect=0;shape=mxgraph.citrix.license_server;" vertex="1" parent="Rc0wREw-xOqywwhantwc-29">
          <mxGeometry x="40" y="20" width="65" height="85" as="geometry" />
        </mxCell>
        <mxCell id="Rc0wREw-xOqywwhantwc-38" style="edgeStyle=orthogonalEdgeStyle;rounded=0;orthogonalLoop=1;jettySize=auto;html=1;exitX=1;exitY=0;exitDx=0;exitDy=0;" edge="1" parent="1" source="Rc0wREw-xOqywwhantwc-37" target="Rc0wREw-xOqywwhantwc-20">
          <mxGeometry relative="1" as="geometry" />
        </mxCell>
        <mxCell id="Rc0wREw-xOqywwhantwc-39" style="edgeStyle=orthogonalEdgeStyle;rounded=0;orthogonalLoop=1;jettySize=auto;html=1;exitX=0;exitY=0;exitDx=0;exitDy=0;" edge="1" parent="1" source="Rc0wREw-xOqywwhantwc-37" target="Rc0wREw-xOqywwhantwc-14">
          <mxGeometry relative="1" as="geometry" />
        </mxCell>
        <mxCell id="Rc0wREw-xOqywwhantwc-37" value="" style="shape=partialRectangle;whiteSpace=wrap;html=1;bottom=1;right=1;left=1;top=0;fillColor=none;routingCenterX=-0.5;" vertex="1" parent="1">
          <mxGeometry x="1160" y="480" width="160" height="70" as="geometry" />
        </mxCell>
        <mxCell id="Rc0wREw-xOqywwhantwc-40" value="" style="endArrow=classic;html=1;rounded=0;exitX=0.5;exitY=1;exitDx=0;exitDy=0;" edge="1" parent="1" source="Rc0wREw-xOqywwhantwc-37">
          <mxGeometry width="50" height="50" relative="1" as="geometry">
            <mxPoint x="1060" y="580" as="sourcePoint" />
            <mxPoint x="1240" y="750" as="targetPoint" />
          </mxGeometry>
        </mxCell>
        <mxCell id="Rc0wREw-xOqywwhantwc-41" value="Back-end Servers" style="text;strokeColor=none;fillColor=none;html=1;fontSize=24;fontStyle=1;verticalAlign=middle;align=center;" vertex="1" parent="1">
          <mxGeometry x="1195.57" y="880" width="100" height="40" as="geometry" />
        </mxCell>
        <mxCell id="Rc0wREw-xOqywwhantwc-43" value="" style="whiteSpace=wrap;html=1;fillColor=#d5e8d4;fontSize=14;strokeColor=#82b366;verticalAlign=top;" vertex="1" parent="1">
          <mxGeometry x="370" y="730" width="500" height="340" as="geometry" />
        </mxCell>
        <mxCell id="Rc0wREw-xOqywwhantwc-47" value="&lt;h1&gt;&lt;font style=&quot;font-size: 21px;&quot;&gt;databases&lt;/font&gt;&lt;/h1&gt;" style="verticalLabelPosition=bottom;sketch=0;aspect=fixed;html=1;verticalAlign=top;strokeColor=none;align=center;outlineConnect=0;shape=mxgraph.citrix.database;" vertex="1" parent="1">
          <mxGeometry x="430" y="760" width="76.5" height="90" as="geometry" />
        </mxCell>
        <mxCell id="Rc0wREw-xOqywwhantwc-48" value="&lt;h1&gt;&lt;font style=&quot;font-size: 21px;&quot;&gt;cold storage&lt;/font&gt;&lt;/h1&gt;" style="verticalLabelPosition=bottom;sketch=0;aspect=fixed;html=1;verticalAlign=top;strokeColor=none;align=center;outlineConnect=0;shape=mxgraph.citrix.database;" vertex="1" parent="1">
          <mxGeometry x="690" y="760" width="76.5" height="90" as="geometry" />
        </mxCell>
        <mxCell id="Rc0wREw-xOqywwhantwc-49" value="" style="endArrow=classic;html=1;rounded=0;" edge="1" parent="1" source="Rc0wREw-xOqywwhantwc-47" target="Rc0wREw-xOqywwhantwc-48">
          <mxGeometry relative="1" as="geometry">
            <mxPoint x="520" y="811.91" as="sourcePoint" />
            <mxPoint x="620" y="811.91" as="targetPoint" />
          </mxGeometry>
        </mxCell>
        <mxCell id="Rc0wREw-xOqywwhantwc-50" value="&lt;span style=&quot;color: rgb(232, 234, 237); font-family: &amp;quot;Google Sans&amp;quot;, arial, sans-serif; font-size: 20px; text-align: left; text-wrap: wrap; background-color: rgb(32, 33, 36);&quot;&gt;periodic backups&lt;/span&gt;&lt;span style=&quot;background-color: rgb(32, 33, 36); color: rgb(232, 234, 237); font-family: &amp;quot;Google Sans&amp;quot;, arial, sans-serif; font-size: 20px; text-align: left; text-wrap: wrap;&quot;&gt;&amp;nbsp;&lt;/span&gt;" style="edgeLabel;resizable=0;html=1;;align=center;verticalAlign=middle;" connectable="0" vertex="1" parent="Rc0wREw-xOqywwhantwc-49">
          <mxGeometry relative="1" as="geometry" />
        </mxCell>
        <mxCell id="Rc0wREw-xOqywwhantwc-53" value="&lt;h1&gt;shards&lt;/h1&gt;" style="shape=ext;double=1;rounded=1;whiteSpace=wrap;html=1;" vertex="1" parent="1">
          <mxGeometry x="410" y="950" width="120" height="80" as="geometry" />
        </mxCell>
        <mxCell id="Rc0wREw-xOqywwhantwc-54" value="&lt;h1&gt;replicas&lt;/h1&gt;" style="shape=ext;double=1;rounded=1;whiteSpace=wrap;html=1;" vertex="1" parent="1">
          <mxGeometry x="668.25" y="950" width="120" height="80" as="geometry" />
        </mxCell>
        <mxCell id="Rc0wREw-xOqywwhantwc-55" value="" style="edgeStyle=elbowEdgeStyle;elbow=vertical;endArrow=classic;html=1;curved=0;rounded=0;endSize=8;startSize=8;entryX=0.5;entryY=0;entryDx=0;entryDy=0;" edge="1" parent="1" target="Rc0wREw-xOqywwhantwc-53">
          <mxGeometry width="50" height="50" relative="1" as="geometry">
            <mxPoint x="400" y="805" as="sourcePoint" />
            <mxPoint x="440" y="950" as="targetPoint" />
            <Array as="points">
              <mxPoint x="420" y="920" />
            </Array>
          </mxGeometry>
        </mxCell>
        <mxCell id="Rc0wREw-xOqywwhantwc-58" value="" style="line;strokeWidth=2;direction=south;html=1;rotation=90;" vertex="1" parent="1">
          <mxGeometry x="412.5" y="787.5" width="7.5" height="32.5" as="geometry" />
        </mxCell>
        <mxCell id="Rc0wREw-xOqywwhantwc-59" value="" style="endArrow=classic;html=1;rounded=0;exitX=1;exitY=0.5;exitDx=0;exitDy=0;entryX=0;entryY=0.5;entryDx=0;entryDy=0;" edge="1" parent="1" source="Rc0wREw-xOqywwhantwc-53" target="Rc0wREw-xOqywwhantwc-54">
          <mxGeometry width="50" height="50" relative="1" as="geometry">
            <mxPoint x="510" y="950" as="sourcePoint" />
            <mxPoint x="560" y="900" as="targetPoint" />
          </mxGeometry>
        </mxCell>
        <mxCell id="Rc0wREw-xOqywwhantwc-60" value="" style="endArrow=classic;startArrow=classic;html=1;rounded=0;exitX=1;exitY=0.5;exitDx=0;exitDy=0;" edge="1" parent="1" source="Rc0wREw-xOqywwhantwc-43">
          <mxGeometry width="50" height="50" relative="1" as="geometry">
            <mxPoint x="930" y="950" as="sourcePoint" />
            <mxPoint x="1120" y="900" as="targetPoint" />
          </mxGeometry>
        </mxCell>
        <mxCell id="Rc0wREw-xOqywwhantwc-61" value="" style="whiteSpace=wrap;html=1;fillColor=#d5e8d4;fontSize=14;strokeColor=#82b366;verticalAlign=top;" vertex="1" parent="1">
          <mxGeometry x="990" y="1200" width="500" height="340" as="geometry" />
        </mxCell>
        <mxCell id="Rc0wREw-xOqywwhantwc-62" value="" style="endArrow=classic;startArrow=classic;html=1;rounded=0;exitX=0.5;exitY=0;exitDx=0;exitDy=0;" edge="1" parent="1" source="Rc0wREw-xOqywwhantwc-61">
          <mxGeometry width="50" height="50" relative="1" as="geometry">
            <mxPoint x="1360" y="1190" as="sourcePoint" />
            <mxPoint x="1240" y="950" as="targetPoint" />
          </mxGeometry>
        </mxCell>
        <mxCell id="Rc0wREw-xOqywwhantwc-63" value="pub/sub Queue" style="ellipse;whiteSpace=wrap;html=1;align=center;newEdgeStyle={&quot;edgeStyle&quot;:&quot;entityRelationEdgeStyle&quot;,&quot;startArrow&quot;:&quot;none&quot;,&quot;endArrow&quot;:&quot;none&quot;,&quot;segment&quot;:10,&quot;curved&quot;:1,&quot;sourcePerimeterSpacing&quot;:0,&quot;targetPerimeterSpacing&quot;:0};treeFolding=1;treeMoving=1;" vertex="1" parent="1">
          <mxGeometry x="1030" y="1250" width="150" height="60" as="geometry" />
        </mxCell>
        <mxCell id="Rc0wREw-xOqywwhantwc-68" value="Notification&lt;div&gt;service&lt;/div&gt;" style="shape=ext;double=1;rounded=1;whiteSpace=wrap;html=1;" vertex="1" parent="1">
          <mxGeometry x="1261.13" y="1240" width="120" height="80" as="geometry" />
        </mxCell>
        <mxCell id="Rc0wREw-xOqywwhantwc-69" value="Payout&lt;div&gt;service&lt;/div&gt;" style="shape=ext;double=1;rounded=1;whiteSpace=wrap;html=1;" vertex="1" parent="1">
          <mxGeometry x="1261.13" y="1340" width="120" height="80" as="geometry" />
        </mxCell>
        <mxCell id="Rc0wREw-xOqywwhantwc-70" value="logger service" style="shape=ext;double=1;rounded=1;whiteSpace=wrap;html=1;" vertex="1" parent="1">
          <mxGeometry x="1261.13" y="1440" width="120" height="80" as="geometry" />
        </mxCell>
        <mxCell id="Rc0wREw-xOqywwhantwc-71" value="" style="edgeStyle=elbowEdgeStyle;elbow=horizontal;endArrow=classic;html=1;curved=0;rounded=0;endSize=8;startSize=8;entryX=0;entryY=0.5;entryDx=0;entryDy=0;exitX=1;exitY=0.5;exitDx=0;exitDy=0;" edge="1" parent="1" source="Rc0wREw-xOqywwhantwc-63" target="Rc0wREw-xOqywwhantwc-69">
          <mxGeometry width="50" height="50" relative="1" as="geometry">
            <mxPoint x="1230" y="1420" as="sourcePoint" />
            <mxPoint x="1280" y="1370" as="targetPoint" />
          </mxGeometry>
        </mxCell>
        <mxCell id="Rc0wREw-xOqywwhantwc-72" value="" style="endArrow=classic;html=1;rounded=0;" edge="1" parent="1" target="Rc0wREw-xOqywwhantwc-68">
          <mxGeometry width="50" height="50" relative="1" as="geometry">
            <mxPoint x="1220" y="1280" as="sourcePoint" />
            <mxPoint x="1280" y="1370" as="targetPoint" />
          </mxGeometry>
        </mxCell>
        <mxCell id="Rc0wREw-xOqywwhantwc-73" value="" style="edgeStyle=elbowEdgeStyle;elbow=horizontal;endArrow=classic;html=1;curved=0;rounded=0;endSize=8;startSize=8;entryX=0;entryY=0.5;entryDx=0;entryDy=0;" edge="1" parent="1" target="Rc0wREw-xOqywwhantwc-70">
          <mxGeometry width="50" height="50" relative="1" as="geometry">
            <mxPoint x="1220" y="1380" as="sourcePoint" />
            <mxPoint x="1280" y="1370" as="targetPoint" />
            <Array as="points">
              <mxPoint x="1220" y="1430" />
            </Array>
          </mxGeometry>
        </mxCell>
        <mxCell id="Rc0wREw-xOqywwhantwc-74" value="&lt;h1&gt;&lt;font style=&quot;font-size: 21px;&quot;&gt;runners and workers for smart contracts and the process related to payout system&lt;/font&gt;&lt;/h1&gt;" style="whiteSpace=wrap;html=1;fillColor=#d5e8d4;fontSize=14;strokeColor=#82b366;verticalAlign=top;" vertex="1" parent="1">
          <mxGeometry x="1186.7" y="1650" width="268.87" height="180" as="geometry" />
        </mxCell>
        <mxCell id="Rc0wREw-xOqywwhantwc-76" value="" style="curved=1;endArrow=classic;html=1;rounded=0;exitX=1;exitY=0.5;exitDx=0;exitDy=0;entryX=1;entryY=0.5;entryDx=0;entryDy=0;" edge="1" parent="1" source="Rc0wREw-xOqywwhantwc-69" target="Rc0wREw-xOqywwhantwc-74">
          <mxGeometry width="50" height="50" relative="1" as="geometry">
            <mxPoint x="1150" y="1560" as="sourcePoint" />
            <mxPoint x="1200" y="1510" as="targetPoint" />
            <Array as="points">
              <mxPoint x="1790" y="1520" />
              <mxPoint x="1590" y="1650" />
            </Array>
          </mxGeometry>
        </mxCell>
        <mxCell id="Rc0wREw-xOqywwhantwc-77" value="" style="whiteSpace=wrap;html=1;fillColor=#d5e8d4;fontSize=14;strokeColor=#82b366;verticalAlign=top;" vertex="1" parent="1">
          <mxGeometry x="1530" y="715" width="600" height="370" as="geometry" />
        </mxCell>
        <mxCell id="Rc0wREw-xOqywwhantwc-78" value="" style="endArrow=classic;startArrow=classic;html=1;rounded=0;entryX=0;entryY=0.5;entryDx=0;entryDy=0;" edge="1" parent="1" target="Rc0wREw-xOqywwhantwc-77">
          <mxGeometry width="50" height="50" relative="1" as="geometry">
            <mxPoint x="1360" y="900" as="sourcePoint" />
            <mxPoint x="1520" y="830" as="targetPoint" />
          </mxGeometry>
        </mxCell>
        <mxCell id="Rc0wREw-xOqywwhantwc-79" value="process.py&lt;div&gt;(getting the quiz quotations)&lt;/div&gt;" style="shape=ext;double=1;rounded=1;whiteSpace=wrap;html=1;" vertex="1" parent="1">
          <mxGeometry x="1780" y="730" width="120" height="80" as="geometry" />
        </mxCell>
        <mxCell id="Rc0wREw-xOqywwhantwc-83" value="&lt;font style=&quot;font-size: 19px;&quot;&gt;encrypted and stored&lt;/font&gt;" style="verticalLabelPosition=bottom;sketch=0;aspect=fixed;html=1;verticalAlign=top;strokeColor=none;align=center;outlineConnect=0;shape=mxgraph.citrix.database;" vertex="1" parent="1">
          <mxGeometry x="1600" y="900" width="76.5" height="90" as="geometry" />
        </mxCell>
        <mxCell id="Rc0wREw-xOqywwhantwc-84" value="" style="edgeStyle=elbowEdgeStyle;elbow=horizontal;endArrow=classic;html=1;curved=0;rounded=0;endSize=8;startSize=8;exitX=0;exitY=0.5;exitDx=0;exitDy=0;" edge="1" parent="1" source="Rc0wREw-xOqywwhantwc-79" target="Rc0wREw-xOqywwhantwc-83">
          <mxGeometry width="50" height="50" relative="1" as="geometry">
            <mxPoint x="1790" y="920" as="sourcePoint" />
            <mxPoint x="1840" y="870" as="targetPoint" />
            <Array as="points">
              <mxPoint x="1630" y="860" />
            </Array>
          </mxGeometry>
        </mxCell>
        <mxCell id="Rc0wREw-xOqywwhantwc-85" value="" style="endArrow=classic;html=1;rounded=0;" edge="1" parent="1" source="Rc0wREw-xOqywwhantwc-83" target="Rc0wREw-xOqywwhantwc-87">
          <mxGeometry relative="1" as="geometry">
            <mxPoint x="1690" y="960" as="sourcePoint" />
            <mxPoint x="1874" y="960" as="targetPoint" />
          </mxGeometry>
        </mxCell>
        <mxCell id="Rc0wREw-xOqywwhantwc-86" value="&lt;div style=&quot;text-align: left;&quot;&gt;&lt;font face=&quot;Google Sans, arial, sans-serif&quot; color=&quot;#e8eaed&quot;&gt;&lt;span style=&quot;font-size: 20px; text-wrap: wrap; background-color: rgb(32, 33, 36);&quot;&gt;periodic proccess&lt;/span&gt;&lt;/font&gt;&lt;/div&gt;" style="edgeLabel;resizable=0;html=1;;align=center;verticalAlign=middle;" connectable="0" vertex="1" parent="Rc0wREw-xOqywwhantwc-85">
          <mxGeometry relative="1" as="geometry">
            <mxPoint x="-3" as="offset" />
          </mxGeometry>
        </mxCell>
        <mxCell id="Rc0wREw-xOqywwhantwc-87" value="" style="verticalLabelPosition=bottom;sketch=0;aspect=fixed;html=1;verticalAlign=top;strokeColor=none;align=center;outlineConnect=0;shape=mxgraph.citrix.process;" vertex="1" parent="1">
          <mxGeometry x="1848" y="914" width="52" height="62" as="geometry" />
        </mxCell>
        <mxCell id="Rc0wREw-xOqywwhantwc-88" value="" style="verticalLabelPosition=bottom;sketch=0;aspect=fixed;html=1;verticalAlign=top;strokeColor=none;align=center;outlineConnect=0;shape=mxgraph.citrix.process;" vertex="1" parent="1">
          <mxGeometry x="1910" y="739" width="52" height="62" as="geometry" />
        </mxCell>
        <mxCell id="Rc0wREw-xOqywwhantwc-89" value="" style="verticalLabelPosition=bottom;sketch=0;aspect=fixed;html=1;verticalAlign=top;strokeColor=none;align=center;outlineConnect=0;shape=mxgraph.citrix.process;" vertex="1" parent="1">
          <mxGeometry x="1390" y="1249" width="52" height="62" as="geometry" />
        </mxCell>
        <mxCell id="Rc0wREw-xOqywwhantwc-90" value="" style="verticalLabelPosition=bottom;sketch=0;aspect=fixed;html=1;verticalAlign=top;strokeColor=none;align=center;outlineConnect=0;shape=mxgraph.citrix.process;" vertex="1" parent="1">
          <mxGeometry x="1390" y="1449" width="52" height="62" as="geometry" />
        </mxCell>
        <mxCell id="Rc0wREw-xOqywwhantwc-95" value="" style="verticalLabelPosition=bottom;sketch=0;aspect=fixed;html=1;verticalAlign=top;strokeColor=none;align=center;outlineConnect=0;shape=mxgraph.citrix.file_server;" vertex="1" parent="1">
          <mxGeometry x="2020" y="896.5" width="71" height="97" as="geometry" />
        </mxCell>
        <mxCell id="Rc0wREw-xOqywwhantwc-96" value="" style="endArrow=classic;html=1;rounded=0;" edge="1" parent="1" source="Rc0wREw-xOqywwhantwc-87" target="Rc0wREw-xOqywwhantwc-95">
          <mxGeometry width="50" height="50" relative="1" as="geometry">
            <mxPoint x="1860" y="970" as="sourcePoint" />
            <mxPoint x="1910" y="920" as="targetPoint" />
          </mxGeometry>
        </mxCell>
        <mxCell id="Rc0wREw-xOqywwhantwc-97" value="decrypted data" style="edgeLabel;html=1;align=center;verticalAlign=middle;resizable=0;points=[];" vertex="1" connectable="0" parent="Rc0wREw-xOqywwhantwc-96">
          <mxGeometry x="-0.1457" y="1" relative="1" as="geometry">
            <mxPoint as="offset" />
          </mxGeometry>
        </mxCell>
        <mxCell id="Rc0wREw-xOqywwhantwc-98" value="" style="edgeStyle=elbowEdgeStyle;elbow=vertical;endArrow=classic;html=1;curved=0;rounded=0;endSize=8;startSize=8;" edge="1" parent="1" source="Rc0wREw-xOqywwhantwc-95" target="Rc0wREw-xOqywwhantwc-22">
          <mxGeometry width="50" height="50" relative="1" as="geometry">
            <mxPoint x="1770" y="790" as="sourcePoint" />
            <mxPoint x="1820" y="740" as="targetPoint" />
            <Array as="points">
              <mxPoint x="1910" y="380" />
            </Array>
          </mxGeometry>
        </mxCell>
        <mxCell id="Rc0wREw-xOqywwhantwc-99" value="&lt;h1&gt;publish the data&lt;/h1&gt;" style="edgeLabel;html=1;align=center;verticalAlign=middle;resizable=0;points=[];" vertex="1" connectable="0" parent="Rc0wREw-xOqywwhantwc-98">
          <mxGeometry x="-0.2175" y="-3" relative="1" as="geometry">
            <mxPoint as="offset" />
          </mxGeometry>
        </mxCell>
      </root>
    </mxGraphModel>
  </diagram>
</mxfile>
